<mxfile host="app.diagrams.net" agent="Mozilla/5.0 (Windows NT 10.0; Win64; x64) AppleWebKit/537.36 (KHTML, like Gecko) Chrome/128.0.0.0 Safari/537.36 OPR/114.0.0.0" version="25.0.3">
  <diagram name="Page-1" id="-DacmyLCxZQ_pa_SjSFt">
    <mxGraphModel dx="1393" dy="763" grid="1" gridSize="10" guides="1" tooltips="1" connect="1" arrows="1" fold="1" page="1" pageScale="1" pageWidth="827" pageHeight="1169" math="0" shadow="0">
      <root>
        <mxCell id="0" />
        <mxCell id="1" parent="0" />
        <mxCell id="EH6zo3SzIwUiuKwaqc0X-1" value="Minuteur de douche&amp;nbsp;" style="rounded=0;whiteSpace=wrap;html=1;" vertex="1" parent="1">
          <mxGeometry x="220" y="250" width="380" height="200" as="geometry" />
        </mxCell>
        <mxCell id="EH6zo3SzIwUiuKwaqc0X-2" value="" style="endArrow=classic;html=1;rounded=0;labelBackgroundColor=none;fontColor=default;" edge="1" parent="1">
          <mxGeometry width="50" height="50" relative="1" as="geometry">
            <mxPoint x="155" y="277" as="sourcePoint" />
            <mxPoint x="220" y="277" as="targetPoint" />
          </mxGeometry>
        </mxCell>
        <mxCell id="EH6zo3SzIwUiuKwaqc0X-3" value="Énergie" style="text;html=1;align=center;verticalAlign=middle;resizable=0;points=[];autosize=1;strokeColor=none;fillColor=none;labelBackgroundColor=none;" vertex="1" parent="1">
          <mxGeometry x="154.5" y="250" width="59" height="26" as="geometry" />
        </mxCell>
        <mxCell id="EH6zo3SzIwUiuKwaqc0X-4" value="" style="endArrow=classic;startArrow=classic;html=1;rounded=0;entryX=1.006;entryY=1.077;entryDx=0;entryDy=0;entryPerimeter=0;labelBackgroundColor=none;fontColor=default;" edge="1" parent="1">
          <mxGeometry width="50" height="50" relative="1" as="geometry">
            <mxPoint x="22.00999999999999" y="435" as="sourcePoint" />
            <mxPoint x="220" y="435.00200000000007" as="targetPoint" />
          </mxGeometry>
        </mxCell>
        <mxCell id="EH6zo3SzIwUiuKwaqc0X-5" value="Données_de_programmation" style="text;html=1;align=center;verticalAlign=middle;resizable=0;points=[];autosize=1;strokeColor=none;fillColor=none;labelBackgroundColor=none;" vertex="1" parent="1">
          <mxGeometry x="34.00999999999999" y="409" width="173" height="26" as="geometry" />
        </mxCell>
        <mxCell id="EH6zo3SzIwUiuKwaqc0X-6" value="" style="endArrow=classic;html=1;rounded=0;labelBackgroundColor=none;fontColor=default;" edge="1" parent="1">
          <mxGeometry width="50" height="50" relative="1" as="geometry">
            <mxPoint x="138" y="337" as="sourcePoint" />
            <mxPoint x="220" y="337" as="targetPoint" />
          </mxGeometry>
        </mxCell>
        <mxCell id="EH6zo3SzIwUiuKwaqc0X-7" value="Appui_BP" style="text;html=1;align=center;verticalAlign=middle;resizable=0;points=[];autosize=1;strokeColor=none;fillColor=none;labelBackgroundColor=none;" vertex="1" parent="1">
          <mxGeometry x="142" y="310" width="71" height="26" as="geometry" />
        </mxCell>
        <mxCell id="EH6zo3SzIwUiuKwaqc0X-8" value="" style="endArrow=classic;html=1;rounded=0;exitX=1;exitY=0.5;exitDx=0;exitDy=0;labelBackgroundColor=none;fontColor=default;" edge="1" parent="1">
          <mxGeometry width="50" height="50" relative="1" as="geometry">
            <mxPoint x="600" y="296" as="sourcePoint" />
            <mxPoint x="777" y="296" as="targetPoint" />
          </mxGeometry>
        </mxCell>
        <mxCell id="EH6zo3SzIwUiuKwaqc0X-9" value="Durée_douche" style="text;html=1;align=left;verticalAlign=middle;resizable=0;points=[];autosize=1;strokeColor=none;fillColor=none;labelBackgroundColor=none;" vertex="1" parent="1">
          <mxGeometry x="610" y="270" width="97" height="26" as="geometry" />
        </mxCell>
        <mxCell id="EH6zo3SzIwUiuKwaqc0X-10" value="" style="endArrow=classic;html=1;rounded=0;exitX=0.986;exitY=0.221;exitDx=0;exitDy=0;labelBackgroundColor=none;fontColor=default;exitPerimeter=0;" edge="1" parent="1">
          <mxGeometry width="50" height="50" relative="1" as="geometry">
            <mxPoint x="599.9999999999999" y="348.929" as="sourcePoint" />
            <mxPoint x="777.68" y="349" as="targetPoint" />
          </mxGeometry>
        </mxCell>
        <mxCell id="EH6zo3SzIwUiuKwaqc0X-11" value="Alerte_Visuelle" style="text;html=1;align=left;verticalAlign=middle;resizable=0;points=[];autosize=1;strokeColor=none;fillColor=none;labelBackgroundColor=none;" vertex="1" parent="1">
          <mxGeometry x="610.68" y="320" width="98" height="26" as="geometry" />
        </mxCell>
        <mxCell id="EH6zo3SzIwUiuKwaqc0X-12" value="" style="endArrow=classic;html=1;rounded=0;exitX=1;exitY=0.5;exitDx=0;exitDy=0;labelBackgroundColor=none;fontColor=default;" edge="1" parent="1">
          <mxGeometry width="50" height="50" relative="1" as="geometry">
            <mxPoint x="600" y="396" as="sourcePoint" />
            <mxPoint x="777" y="396" as="targetPoint" />
            <Array as="points">
              <mxPoint x="689" y="396" />
            </Array>
          </mxGeometry>
        </mxCell>
        <mxCell id="EH6zo3SzIwUiuKwaqc0X-13" value="Alerte_Sonore" style="text;html=1;align=left;verticalAlign=middle;resizable=0;points=[];autosize=1;strokeColor=none;fillColor=none;labelBackgroundColor=none;" vertex="1" parent="1">
          <mxGeometry x="610" y="370" width="95" height="26" as="geometry" />
        </mxCell>
        <mxCell id="EH6zo3SzIwUiuKwaqc0X-14" value="&lt;div style=&quot;text-align: start;&quot;&gt;&lt;span style=&quot;text-wrap-mode: wrap;&quot;&gt;Données_Bluetooth&lt;/span&gt;&lt;/div&gt;" style="text;html=1;align=center;verticalAlign=middle;resizable=0;points=[];autosize=1;strokeColor=none;fillColor=none;labelBackgroundColor=none;" vertex="1" parent="1">
          <mxGeometry x="410" y="472.5" width="123" height="26" as="geometry" />
        </mxCell>
        <mxCell id="EH6zo3SzIwUiuKwaqc0X-15" value="" style="endArrow=classic;startArrow=classic;html=1;rounded=0;" edge="1" parent="1">
          <mxGeometry width="50" height="50" relative="1" as="geometry">
            <mxPoint x="410" y="532.5" as="sourcePoint" />
            <mxPoint x="410" y="450" as="targetPoint" />
          </mxGeometry>
        </mxCell>
      </root>
    </mxGraphModel>
  </diagram>
</mxfile>
